<svg
  width="17"
  height="22"
  viewBox="0 0 17 22"
  fill="#424766"
  xmlns="http://www.w3.org/2000/svg"
>
  <path d="M13.1602 7.91502C12.6302 7.91502 12.2102 8.33502 12.2002 8.86502V19.005L7.89019 16.515C7.74019 16.435 7.58019 16.385 7.41019 16.385C7.24019 16.385 7.08019 16.425 6.93019 16.515L2.61019 19.005V5.33502C2.61019 5.08502 2.71019 4.83502 2.89019 4.65502C3.07019 4.47502 3.31019 4.37502 3.57019 4.37502H7.40019H8.30019C8.83019 4.37502 9.26019 3.94502 9.26019 3.41502C9.26019 2.88502 8.83019 2.45502 8.30019 2.45502C8.29019 2.45502 8.28019 2.46502 8.27019 2.46502H7.39019H3.57019C2.81019 2.46502 2.08019 2.76502 1.54019 3.30502C1.00019 3.84502 0.690186 4.56502 0.690186 5.33502V20.665C0.690186 20.835 0.730186 20.995 0.820186 21.145C0.900186 21.295 1.03019 21.415 1.17019 21.495C1.32019 21.575 1.48019 21.625 1.65019 21.625C1.82019 21.625 1.98019 21.585 2.13019 21.495L7.40019 18.445L12.6702 21.495C12.8202 21.575 12.9802 21.625 13.1502 21.615C13.3202 21.615 13.4802 21.575 13.6302 21.495C13.7802 21.415 13.9002 21.285 13.9802 21.145C14.0602 20.995 14.1102 20.835 14.1102 20.665V8.90502C14.1102 8.89502 14.1102 8.89502 14.1102 8.88502C14.1202 8.34502 13.6902 7.91502 13.1602 7.91502Z" />
  <path d="M16.0103 2.665C15.8203 2.475 15.5703 2.375 15.3003 2.375H14.3003V1.375C14.3003 1.105 14.1903 0.855 14.0103 0.665C13.8203 0.475 13.5703 0.375 13.3003 0.375C13.0303 0.375 12.7803 0.485 12.5903 0.665C12.4103 0.855 12.3103 1.105 12.3103 1.365V2.365H11.3103C11.0403 2.365 10.7903 2.475 10.6003 2.655C10.4103 2.855 10.3103 3.105 10.3103 3.365C10.3103 3.635 10.4203 3.885 10.6003 4.075C10.7803 4.265 11.0403 4.365 11.3103 4.365H12.3103V5.365C12.3103 5.635 12.4203 5.885 12.6003 6.075C12.7903 6.265 13.0403 6.365 13.3103 6.365C13.5803 6.365 13.8303 6.255 14.0203 6.075C14.2103 5.895 14.3103 5.635 14.3103 5.365V4.365H15.3103C15.5803 4.365 15.8303 4.255 16.0203 4.075C16.2103 3.895 16.3103 3.635 16.3103 3.365C16.3103 3.105 16.2003 2.855 16.0103 2.665Z" />
</svg>
